<svg id="svg" version="1.1" xmlns="http://www.w3.org/2000/svg" xmlns:xlink="http://www.w3.org/1999/xlink" width="400" height="382.089552238806" viewBox="0, 0, 400,382.089552238806"><g id="svgg"><path id="path0" d="M295.744 197.864 C 293.990 198.642,294.002 198.588,293.462 208.181 C 292.733 221.139,292.347 223.284,288.911 233.461 C 288.201 235.564,287.359 238.231,287.039 239.388 C 286.473 241.436,282.084 250.377,279.492 254.764 C 278.783 255.964,277.638 257.943,276.948 259.161 C 276.259 260.380,274.452 262.860,272.933 264.674 C 271.415 266.487,268.568 269.890,266.608 272.236 C 264.337 274.954,261.700 277.568,259.342 279.443 C 257.306 281.061,254.522 283.342,253.155 284.512 C 248.939 288.119,246.698 289.594,239.962 293.193 C 230.557 298.219,228.358 299.262,226.004 299.814 C 224.847 300.085,223.180 300.615,222.299 300.990 C 221.417 301.366,218.664 302.221,216.180 302.890 C 213.696 303.559,210.854 304.332,209.864 304.609 C 208.874 304.885,205.002 305.307,201.260 305.548 C 197.517 305.788,193.337 306.123,191.969 306.291 C 190.418 306.483,187.616 306.413,184.512 306.105 C 181.778 305.834,177.132 305.414,174.187 305.171 C 168.363 304.692,159.941 302.741,156.771 301.138 C 155.816 300.654,154.009 299.963,152.756 299.602 C 151.503 299.241,149.704 298.561,148.757 298.091 C 145.788 296.617,143.361 296.215,141.676 296.919 C 139.823 297.693,109.543 327.744,109.187 329.162 C 108.816 330.643,110.303 331.885,116.193 335.016 C 119.065 336.543,121.853 338.094,122.388 338.464 C 122.923 338.835,124.558 339.608,126.021 340.183 C 127.484 340.758,128.853 341.356,129.063 341.510 C 129.273 341.665,130.873 342.240,132.618 342.788 C 134.363 343.336,136.292 344.044,136.905 344.361 C 139.560 345.734,146.958 348.135,150.478 348.766 C 152.581 349.144,156.287 349.970,158.713 350.602 C 162.016 351.463,165.044 351.909,170.759 352.377 C 174.958 352.720,180.717 353.270,183.556 353.598 C 189.195 354.250,193.600 354.054,206.310 352.587 C 209.675 352.199,213.633 351.763,215.105 351.617 C 216.577 351.472,219.159 350.955,220.841 350.469 C 222.524 349.982,225.291 349.321,226.990 349.000 C 231.361 348.173,242.680 344.302,248.566 341.620 C 251.620 340.228,268.911 330.978,272.275 328.936 C 275.676 326.872,276.808 326.025,282.600 321.208 C 285.019 319.196,289.321 315.628,292.161 313.279 C 295.000 310.929,298.184 307.937,299.235 306.629 C 300.287 305.321,301.760 303.553,302.509 302.699 C 303.257 301.846,304.923 299.857,306.211 298.279 C 307.498 296.702,309.860 293.862,311.458 291.969 C 314.010 288.948,317.040 284.462,318.949 280.880 C 319.914 279.069,326.316 267.410,328.083 264.245 C 328.964 262.667,330.207 259.914,330.846 258.126 C 334.486 247.944,336.181 242.673,336.726 239.850 C 337.062 238.106,337.660 235.740,338.055 234.593 C 338.775 232.501,339.175 230.023,339.997 222.562 C 340.240 220.354,340.486 218.289,340.542 217.973 C 340.598 217.658,340.764 216.023,340.909 214.340 C 341.054 212.658,341.229 210.921,341.296 210.480 C 342.269 204.146,341.846 199.143,340.249 198.085 C 339.000 197.257,297.577 197.052,295.744 197.864 " stroke="none" fill="#d7cfb2" fill-rule="evenodd"></path><path id="path1" d="M256.523 1.550 C 255.116 2.386,253.575 3.627,253.100 4.308 C 252.624 4.988,251.951 5.803,251.604 6.119 C 250.558 7.070,249.780 8.919,249.337 11.507 C 248.581 15.921,248.980 112.269,249.762 113.987 C 250.948 116.596,253.898 119.925,261.769 127.533 C 266.497 132.104,270.138 135.951,270.816 137.094 C 271.987 139.066,272.982 140.577,274.836 143.197 C 275.426 144.031,276.338 145.433,276.864 146.314 C 280.949 153.155,283.722 155.783,290.249 159.001 L 292.352 160.038 339.197 160.038 C 391.296 160.038,387.160 160.256,391.568 157.283 C 397.680 153.162,398.995 150.468,398.999 142.065 C 399.003 135.082,398.417 131.914,396.699 129.637 C 396.462 129.321,396.063 127.859,395.813 126.386 C 395.407 123.995,394.597 121.748,393.537 120.076 C 393.337 119.761,392.882 118.212,392.525 116.635 C 392.169 115.057,391.553 113.308,391.156 112.748 C 390.759 112.187,389.931 110.493,389.317 108.984 C 388.703 107.474,387.959 105.954,387.665 105.605 C 387.370 105.257,386.838 104.036,386.481 102.893 C 386.125 101.749,385.422 100.275,384.920 99.616 C 384.417 98.957,383.819 97.724,383.591 96.877 C 383.362 96.029,382.759 94.750,382.251 94.035 C 381.742 93.319,380.792 91.702,380.140 90.440 C 378.512 87.288,377.394 85.515,376.169 84.141 C 375.598 83.499,374.705 82.073,374.185 80.971 C 373.666 79.869,372.194 77.505,370.915 75.717 C 369.636 73.929,368.470 72.168,368.323 71.804 C 368.006 71.015,363.135 64.993,360.378 61.982 C 359.303 60.808,357.668 58.728,356.745 57.361 C 354.369 53.843,340.059 39.621,335.148 35.898 C 333.657 34.768,331.142 32.776,329.560 31.472 C 327.977 30.167,325.153 28.052,323.284 26.770 C 321.415 25.489,318.709 23.504,317.271 22.360 C 315.833 21.215,314.001 20.082,313.199 19.842 C 312.398 19.602,311.322 19.016,310.808 18.540 C 310.295 18.064,309.288 17.373,308.570 17.005 C 307.853 16.636,305.430 15.238,303.186 13.897 C 300.942 12.556,298.458 11.188,297.666 10.857 C 296.873 10.526,295.664 9.828,294.980 9.306 C 294.295 8.784,292.723 8.050,291.485 7.675 C 290.248 7.301,288.474 6.553,287.543 6.014 C 286.612 5.475,285.099 4.836,284.180 4.593 C 283.262 4.351,281.397 3.562,280.038 2.841 C 278.678 2.120,277.193 1.529,276.737 1.528 C 276.281 1.527,275.345 1.183,274.656 0.763 C 273.520 0.071,272.742 0.001,266.243 0.015 L 259.082 0.031 256.523 1.550 M185.660 20.258 C 184.187 20.409,182.036 20.803,180.880 21.134 C 179.406 21.556,176.200 21.811,170.172 21.985 C 159.656 22.289,156.531 22.656,153.796 23.908 C 152.388 24.553,150.479 25.001,148.086 25.249 C 143.538 25.721,142.794 25.898,140.918 26.959 C 139.987 27.486,138.133 27.991,136.180 28.251 C 134.004 28.541,132.097 29.094,130.253 29.968 C 128.757 30.677,126.893 31.354,126.109 31.473 C 125.326 31.592,124.208 31.946,123.624 32.262 C 121.354 33.486,119.805 34.123,117.793 34.659 C 116.643 34.965,115.438 35.423,115.116 35.677 C 114.069 36.503,112.749 37.149,111.093 37.647 C 110.199 37.916,108.714 38.644,107.793 39.264 C 106.872 39.885,105.424 40.593,104.575 40.837 C 103.727 41.082,102.645 41.642,102.172 42.083 C 101.699 42.524,100.500 43.244,99.508 43.682 C 97.803 44.436,95.419 45.863,91.969 48.194 C 91.128 48.763,89.751 49.603,88.910 50.062 C 88.069 50.520,86.348 51.662,85.086 52.598 C 83.824 53.534,81.845 54.935,80.688 55.710 C 77.202 58.046,63.691 69.388,60.242 72.874 C 57.203 75.946,53.527 79.932,51.988 81.823 C 51.052 82.973,49.190 85.124,47.850 86.603 C 45.665 89.013,41.732 94.010,40.727 95.652 C 39.764 97.224,36.862 101.268,35.883 102.403 C 35.287 103.094,34.799 103.888,34.799 104.167 C 34.799 104.678,31.426 110.053,30.215 111.472 C 29.856 111.893,29.263 113.011,28.898 113.958 C 28.534 114.904,27.731 116.443,27.114 117.377 C 26.498 118.311,25.809 119.774,25.582 120.627 C 25.356 121.481,24.862 122.524,24.485 122.945 C 23.639 123.887,22.754 125.652,22.412 127.076 C 22.271 127.666,21.670 128.818,21.077 129.636 C 20.444 130.510,19.796 132.120,19.507 133.536 C 19.237 134.862,18.532 136.812,17.942 137.869 C 17.351 138.926,16.682 140.647,16.456 141.693 C 16.229 142.739,15.532 144.627,14.906 145.889 C 13.714 148.292,13.002 151.258,13.002 153.817 C 13.002 154.736,12.690 155.769,12.210 156.443 C 11.078 158.034,10.743 159.462,10.328 164.463 C 10.052 167.794,9.721 169.431,8.988 171.088 C 7.286 174.937,7.122 177.568,7.146 200.765 C 7.172 226.132,7.467 231.033,9.176 234.535 C 9.930 236.080,10.327 237.485,10.331 238.618 C 10.338 240.818,11.282 244.844,12.208 246.619 C 12.601 247.374,13.110 249.541,13.339 251.434 C 13.628 253.828,14.096 255.575,14.876 257.170 C 15.492 258.432,16.097 260.325,16.220 261.377 C 16.343 262.428,17.114 264.665,17.934 266.348 C 18.754 268.031,19.625 270.044,19.869 270.822 C 20.114 271.601,20.733 272.855,21.245 273.609 C 21.757 274.363,22.370 275.752,22.608 276.695 C 22.845 277.638,23.530 279.087,24.130 279.915 C 24.729 280.743,25.420 282.217,25.666 283.192 C 25.911 284.167,26.495 285.423,26.962 285.982 C 27.430 286.541,28.087 287.948,28.423 289.109 C 28.759 290.270,29.347 291.560,29.729 291.977 C 30.626 292.952,34.798 299.025,34.803 299.361 C 34.805 299.502,35.407 300.373,36.141 301.297 C 36.875 302.220,37.477 303.081,37.477 303.209 C 37.477 303.337,38.004 304.044,38.647 304.780 C 39.290 305.516,40.148 306.754,40.555 307.531 C 42.801 311.825,49.626 320.046,51.544 320.769 C 59.973 323.945,61.247 324.124,64.675 322.612 C 65.806 322.113,67.333 321.576,68.069 321.418 C 70.659 320.863,71.821 319.814,91.751 300.025 C 102.808 289.047,114.633 277.350,118.029 274.032 C 123.920 268.276,125.246 266.685,128.056 261.991 C 130.965 257.133,130.908 250.591,127.913 245.507 C 127.603 244.981,126.836 243.432,126.209 242.065 C 125.582 240.698,124.242 238.289,123.231 236.711 C 122.219 235.134,121.167 233.069,120.892 232.122 C 120.617 231.176,119.998 229.686,119.515 228.810 C 119.033 227.935,118.341 225.881,117.977 224.245 C 117.613 222.610,116.916 220.658,116.427 219.909 C 114.564 217.054,114.423 187.026,116.262 184.895 C 117.338 183.647,117.667 182.754,118.162 179.732 C 118.427 178.108,119.193 175.686,119.927 174.147 C 120.640 172.653,121.224 171.308,121.224 171.158 C 121.224 171.008,121.640 170.338,122.148 169.669 C 122.656 168.999,123.375 167.677,123.745 166.730 C 124.116 165.784,124.905 164.411,125.498 163.680 C 126.092 162.948,126.577 162.151,126.577 161.909 C 126.577 160.626,136.508 149.365,140.368 146.272 C 140.893 145.851,142.167 144.818,143.200 143.977 C 146.173 141.556,148.389 140.068,150.860 138.837 C 152.853 137.844,155.750 136.250,159.570 134.044 C 160.153 133.707,161.604 133.251,162.793 133.032 C 163.982 132.812,165.788 132.196,166.806 131.664 C 168.201 130.935,169.811 130.563,173.334 130.158 C 178.093 129.611,180.263 129.112,181.224 128.344 C 182.360 127.436,194.574 127.556,196.946 128.498 C 199.103 129.355,204.533 130.397,206.853 130.400 C 207.573 130.401,209.207 130.909,210.486 131.529 C 220.325 136.302,235.044 132.695,237.102 125.006 C 237.350 124.083,238.180 122.036,238.948 120.459 L 240.344 117.591 240.344 79.139 L 240.344 40.687 239.119 38.221 C 238.445 36.865,237.696 34.981,237.454 34.034 C 236.496 30.289,232.456 26.604,228.065 25.468 C 226.780 25.136,224.784 24.431,223.628 23.902 C 220.950 22.676,217.838 22.301,207.648 21.979 C 201.763 21.792,198.611 21.521,196.558 21.023 C 193.028 20.167,189.186 19.897,185.660 20.258 M282.983 33.793 C 287.025 35.834,292.783 38.897,293.947 39.625 C 319.965 55.910,342.809 78.958,355.113 101.338 C 356.096 103.126,358.141 106.826,359.657 109.560 C 361.174 112.294,362.634 115.220,362.904 116.061 C 363.173 116.902,363.799 118.401,364.295 119.390 C 368.347 127.478,368.614 131.113,365.267 132.632 C 363.748 133.322,305.536 133.641,303.145 132.973 C 301.491 132.511,299.206 130.202,296.265 126.019 C 291.130 118.717,290.163 117.563,283.763 111.090 C 280.228 107.514,277.014 103.987,276.622 103.250 C 275.588 101.311,275.298 37.945,276.311 35.277 C 277.477 32.204,279.113 31.840,282.983 33.793 M201.510 47.971 C 209.047 48.679,210.984 49.282,212.232 51.312 C 213.457 53.305,213.259 99.142,212.019 100.833 C 210.131 103.406,207.226 103.787,199.426 102.484 C 189.808 100.877,170.130 102.330,162.798 105.188 C 161.701 105.616,159.254 106.375,157.361 106.874 C 148.592 109.189,134.363 116.704,126.995 122.912 C 125.227 124.402,122.395 126.740,120.701 128.107 C 117.953 130.326,113.735 134.994,106.812 143.483 C 104.931 145.789,102.213 150.410,97.232 159.766 C 95.458 163.099,93.523 168.422,91.988 174.187 C 91.485 176.080,90.707 178.447,90.260 179.446 C 89.628 180.860,89.324 182.812,88.894 188.242 C 88.590 192.080,88.168 196.371,87.956 197.779 C 87.222 202.664,88.353 217.882,89.884 223.709 C 92.433 233.416,94.153 238.307,97.423 245.150 C 101.504 253.689,102.642 251.609,83.249 271.061 C 61.181 293.197,61.733 293.007,54.744 280.880 C 54.017 279.618,52.729 277.380,51.883 275.908 C 49.165 271.182,46.613 266.043,45.520 263.098 C 43.023 256.365,41.961 253.643,41.072 251.701 C 40.553 250.566,39.946 248.751,39.724 247.668 C 39.501 246.584,38.826 243.977,38.224 241.874 C 37.621 239.771,36.935 236.759,36.699 235.182 C 36.463 233.604,35.846 230.950,35.329 229.284 C 34.046 225.154,32.329 201.960,33.014 198.010 C 33.134 197.317,33.346 193.652,33.483 189.866 C 33.626 185.959,34.031 181.412,34.421 179.350 C 34.798 177.352,35.484 173.738,35.944 171.319 C 37.758 161.791,42.471 147.095,45.939 140.153 C 47.413 137.203,52.448 127.937,57.504 118.867 C 59.014 116.159,60.187 114.588,66.507 106.813 C 76.360 94.690,79.682 91.333,90.060 83.008 C 93.844 79.973,97.973 76.604,99.235 75.522 C 101.357 73.703,103.046 72.664,109.178 69.401 C 112.949 67.395,115.891 65.777,116.767 65.228 C 118.580 64.091,129.783 58.521,131.099 58.102 C 131.872 57.856,134.226 56.997,136.329 56.193 C 141.415 54.250,148.615 52.123,152.390 51.449 C 154.073 51.149,156.310 50.646,157.361 50.331 C 160.430 49.411,165.365 48.652,171.319 48.183 C 174.369 47.943,178.413 47.600,180.306 47.421 C 184.901 46.986,193.350 47.205,201.510 47.971 M189.771 126.465 C 189.297 126.556,188.523 126.556,188.050 126.465 C 187.576 126.374,187.964 126.299,188.910 126.299 C 189.857 126.299,190.244 126.374,189.771 126.465 M281.262 166.743 C 280.000 166.916,278.364 167.313,277.626 167.625 C 276.889 167.937,275.173 168.394,273.813 168.641 C 268.463 169.611,265.700 172.451,263.335 179.409 C 261.684 184.268,261.554 186.732,262.814 189.293 C 264.076 191.857,264.354 212.302,263.153 214.260 C 262.257 215.721,261.338 218.893,260.973 221.781 C 260.824 222.962,260.313 224.467,259.795 225.250 C 259.291 226.010,258.643 227.739,258.355 229.091 C 257.877 231.327,256.983 233.158,254.136 237.722 C 253.592 238.594,252.810 240.057,252.397 240.973 C 251.984 241.889,250.782 243.757,249.727 245.124 C 248.673 246.491,247.420 248.123,246.945 248.750 C 242.196 255.010,230.863 264.176,223.786 267.480 C 222.672 268.000,221.257 268.784,220.643 269.221 C 220.028 269.659,218.558 270.269,217.376 270.577 C 216.194 270.885,214.511 271.543,213.637 272.039 C 212.762 272.535,210.789 273.139,209.253 273.380 C 207.709 273.623,205.572 274.286,204.473 274.864 L 202.486 275.908 189.293 275.908 L 176.099 275.908 173.722 274.857 C 172.414 274.279,170.106 273.630,168.593 273.416 C 166.828 273.165,165.144 272.629,163.896 271.920 C 162.826 271.312,161.177 270.609,160.233 270.358 C 159.288 270.107,158.084 269.596,157.556 269.221 C 157.028 268.847,155.478 267.995,154.111 267.328 C 152.744 266.661,150.998 265.774,150.232 265.359 C 149.465 264.943,147.486 264.445,145.834 264.252 C 144.182 264.058,141.996 263.612,140.976 263.259 C 138.042 262.244,131.212 264.394,127.520 267.495 C 122.344 271.842,74.634 320.040,72.876 322.697 C 69.505 327.796,69.007 335.971,71.852 339.531 C 72.293 340.084,72.981 341.138,73.381 341.875 C 74.217 343.419,77.371 346.431,79.669 347.882 C 80.536 348.429,81.496 349.128,81.803 349.435 C 82.110 349.742,83.062 350.293,83.918 350.660 C 84.774 351.027,85.989 351.753,86.619 352.273 C 88.358 353.709,92.394 356.368,93.441 356.766 C 93.952 356.960,94.948 357.614,95.655 358.219 C 97.551 359.843,101.691 362.335,103.442 362.908 C 104.283 363.183,105.597 363.821,106.361 364.326 C 107.126 364.831,108.761 365.552,109.994 365.929 C 111.228 366.305,113.088 367.155,114.128 367.819 C 115.169 368.482,116.402 369.025,116.869 369.025 C 117.336 369.025,118.808 369.601,120.140 370.306 C 121.472 371.010,123.250 371.805,124.092 372.072 C 124.933 372.339,126.482 373.039,127.533 373.627 C 129.384 374.661,132.821 375.526,135.085 375.526 C 135.690 375.526,137.259 376.043,138.570 376.676 C 140.405 377.561,141.811 377.906,144.682 378.178 C 147.118 378.408,148.835 378.781,149.636 379.253 C 151.993 380.642,153.600 380.945,161.759 381.540 C 172.045 382.291,211.025 382.647,212.804 382.007 C 213.439 381.778,216.625 381.438,219.885 381.250 C 226.186 380.886,227.189 380.695,229.695 379.380 C 230.736 378.834,232.517 378.419,234.858 378.177 C 237.450 377.909,239.063 377.506,240.727 376.710 C 241.989 376.106,244.261 375.407,245.776 375.155 C 247.579 374.856,249.097 374.324,250.173 373.615 C 251.077 373.020,252.780 372.356,253.957 372.141 C 255.135 371.925,257.114 371.237,258.355 370.611 C 259.596 369.985,261.300 369.288,262.141 369.062 C 262.983 368.836,264.446 368.131,265.392 367.495 C 266.338 366.859,267.781 366.156,268.597 365.933 C 269.414 365.709,270.939 364.937,271.986 364.216 C 273.034 363.496,274.173 362.906,274.517 362.906 C 274.862 362.906,276.262 362.218,277.629 361.377 C 278.996 360.536,280.271 359.847,280.461 359.847 C 280.770 359.847,283.263 358.272,287.763 355.234 C 288.604 354.666,289.895 353.938,290.631 353.617 C 291.367 353.296,292.486 352.543,293.117 351.944 C 294.380 350.744,294.733 350.485,299.369 347.352 C 301.125 346.166,304.395 343.547,306.635 341.533 C 312.797 335.993,313.174 335.656,316.143 333.031 C 317.660 331.690,320.413 328.859,322.261 326.741 C 324.109 324.622,327.030 321.353,328.751 319.475 C 330.472 317.597,332.750 314.857,333.813 313.384 C 334.876 311.912,335.895 310.527,336.076 310.307 C 336.258 310.086,337.060 308.968,337.859 307.821 C 338.658 306.674,339.888 305.090,340.593 304.301 C 341.297 303.512,341.874 302.683,341.874 302.459 C 341.874 302.235,342.283 301.504,342.782 300.835 C 343.282 300.165,343.970 299.015,344.311 298.279 C 344.653 297.543,345.384 296.424,345.937 295.793 C 346.489 295.163,347.193 294.044,347.501 293.308 C 347.809 292.572,348.560 291.183,349.170 290.221 C 349.780 289.260,350.480 287.883,350.726 287.162 C 350.972 286.441,351.637 285.163,352.204 284.321 C 352.771 283.480,353.457 282.103,353.728 281.262 C 354.000 280.421,354.699 279.033,355.283 278.178 C 355.867 277.323,356.605 275.625,356.924 274.405 C 357.243 273.184,357.854 271.813,358.282 271.357 C 358.710 270.901,359.369 269.244,359.747 267.673 C 360.125 266.103,360.891 264.044,361.449 263.098 C 362.007 262.151,362.670 260.258,362.922 258.891 C 363.174 257.524,363.788 255.545,364.285 254.493 C 365.288 252.375,365.966 249.301,365.966 246.874 C 365.966 246.001,366.315 244.604,366.743 243.771 C 368.331 240.678,368.723 238.824,369.050 232.856 C 369.342 227.540,369.484 226.691,370.376 224.973 C 373.009 219.897,372.707 183.164,370.006 180.134 C 369.716 179.808,369.282 178.767,369.043 177.820 C 368.279 174.807,367.910 174.217,365.343 171.922 C 362.999 169.825,360.941 168.699,359.381 168.659 C 359.019 168.650,357.384 168.172,355.748 167.597 L 352.772 166.552 318.164 166.490 C 299.130 166.456,282.524 166.570,281.262 166.743 M8.308 190.911 C 8.223 191.598,8.151 191.128,8.149 189.866 C 8.147 188.604,8.217 188.042,8.304 188.616 C 8.391 189.191,8.393 190.224,8.308 190.911 M340.651 193.850 C 342.432 194.195,343.878 195.320,344.868 197.132 C 345.972 199.153,345.359 215.680,343.962 221.566 C 343.657 222.850,343.145 226.138,342.824 228.872 C 342.492 231.704,341.760 235.406,341.123 237.476 C 340.507 239.474,339.835 242.167,339.628 243.461 C 339.421 244.755,338.824 246.906,338.300 248.241 C 337.777 249.577,336.832 252.132,336.199 253.920 C 333.722 260.917,332.681 263.418,330.865 266.730 C 329.827 268.623,327.556 272.753,325.818 275.908 C 324.079 279.063,322.312 282.333,321.890 283.174 C 320.567 285.813,316.396 291.865,314.131 294.434 C 312.936 295.789,310.992 298.113,309.810 299.596 C 301.863 309.574,296.801 314.727,289.484 320.286 C 288.117 321.324,284.933 323.896,282.409 326.001 C 276.537 330.898,275.142 331.769,261.617 338.971 C 250.898 344.680,247.216 346.373,240.344 348.754 C 238.662 349.337,236.405 350.167,235.330 350.598 C 234.255 351.029,232.276 351.572,230.932 351.806 C 229.589 352.039,226.752 352.738,224.629 353.359 C 222.506 353.979,219.064 354.662,216.981 354.876 C 214.898 355.090,210.956 355.685,208.222 356.198 C 201.539 357.453,191.023 358.039,184.089 357.542 C 171.938 356.673,159.422 354.879,153.919 353.219 C 152.236 352.711,149.741 352.171,148.374 352.018 C 147.007 351.866,144.598 351.224,143.021 350.593 C 141.444 349.962,139.293 349.186,138.241 348.868 C 137.189 348.550,135.714 347.977,134.963 347.595 C 134.212 347.212,132.405 346.518,130.948 346.052 C 127.023 344.797,121.411 342.238,116.950 339.669 C 114.778 338.419,112.228 337.008,111.281 336.533 C 105.502 333.633,103.767 331.086,105.388 327.883 C 106.579 325.529,135.377 296.577,138.857 294.235 C 141.664 292.346,146.310 292.654,151.068 295.044 C 152.023 295.525,153.796 296.205,155.007 296.557 C 156.218 296.909,158.288 297.687,159.608 298.285 C 171.984 303.897,205.142 303.798,219.147 298.107 C 220.371 297.610,222.576 296.929,224.048 296.594 C 226.852 295.957,229.077 294.937,237.285 290.528 C 245.204 286.274,247.442 284.759,253.768 279.370 C 255.262 278.097,257.351 276.332,258.409 275.447 C 260.250 273.908,266.642 266.689,271.223 260.976 C 275.230 255.979,282.915 241.205,284.319 235.800 C 284.820 233.874,285.581 231.477,286.011 230.474 C 288.036 225.749,289.784 215.076,290.217 204.780 C 290.561 196.608,291.092 195.118,294.081 193.926 C 295.248 193.460,338.270 193.390,340.651 193.850 M8.305 210.989 C 8.217 211.570,8.143 211.185,8.140 210.134 C 8.137 209.082,8.209 208.607,8.300 209.077 C 8.391 209.547,8.393 210.408,8.305 210.989 M200.674 277.127 C 200.308 277.223,199.620 277.226,199.144 277.135 C 198.668 277.043,198.967 276.965,199.809 276.961 C 200.650 276.956,201.039 277.031,200.674 277.127 M163.193 380.378 C 162.825 380.475,162.223 380.475,161.855 380.378 C 161.487 380.282,161.788 380.203,162.524 380.203 C 163.260 380.203,163.561 380.282,163.193 380.378 " stroke="none" fill="#2c243c" fill-rule="evenodd"></path><path id="path2" d="M176.864 50.899 C 169.970 51.268,165.606 51.807,161.759 52.765 C 160.182 53.158,157.342 53.758,155.449 54.098 C 141.245 56.649,128.566 61.980,105.354 75.158 C 103.368 76.286,97.989 80.427,93.690 84.138 C 92.323 85.318,89.484 87.643,87.380 89.303 C 82.954 92.798,78.060 97.556,75.788 100.574 C 74.917 101.730,72.315 104.914,70.006 107.648 C 62.332 116.733,60.685 119.210,54.487 130.975 C 53.600 132.658,52.051 135.497,51.045 137.285 C 48.941 141.021,46.082 147.377,45.472 149.674 C 45.243 150.537,44.563 152.369,43.963 153.746 C 43.362 155.123,42.528 157.791,42.111 159.674 C 41.693 161.557,40.987 164.130,40.543 165.392 C 40.098 166.654,39.394 169.924,38.978 172.658 C 38.561 175.392,37.866 179.264,37.433 181.262 C 35.526 190.057,35.904 217.974,38.045 226.386 C 38.340 227.543,38.855 230.124,39.190 232.122 C 39.526 234.120,40.211 237.046,40.713 238.623 C 41.216 240.201,41.908 242.938,42.252 244.706 C 42.596 246.474,43.274 248.711,43.760 249.677 C 44.246 250.643,44.771 251.864,44.928 252.390 C 46.072 256.220,51.487 269.035,53.167 271.885 C 53.728 272.836,54.837 274.732,55.633 276.099 C 62.883 288.555,60.464 289.176,79.829 269.885 C 98.818 250.969,97.582 253.067,94.139 245.597 C 90.883 238.534,89.592 234.952,87.212 226.386 C 86.497 223.812,85.122 214.991,84.500 208.987 C 83.956 203.737,84.046 201.204,85.053 193.308 C 85.563 189.312,86.151 184.481,86.360 182.574 C 86.587 180.494,87.123 178.194,87.698 176.827 C 88.226 175.573,89.008 173.138,89.437 171.416 C 89.866 169.693,90.460 167.806,90.758 167.221 C 91.056 166.635,91.594 165.124,91.954 163.862 C 92.587 161.644,93.670 159.456,97.537 152.581 C 98.542 150.793,99.958 148.235,100.683 146.895 C 103.509 141.674,113.933 129.622,120.026 124.532 C 130.306 115.944,132.067 114.753,140.918 110.405 C 142.180 109.786,143.674 108.951,144.238 108.551 C 145.795 107.447,152.313 104.831,155.138 104.176 C 156.517 103.856,158.527 103.252,159.606 102.832 C 164.461 100.944,176.905 98.867,185.858 98.450 C 190.776 98.221,193.187 98.365,202.973 99.475 L 207.284 99.964 208.327 98.922 L 209.369 97.880 209.482 76.569 C 209.604 53.303,209.592 53.061,208.177 52.135 C 206.251 50.872,189.614 50.216,176.864 50.899 " stroke="none" fill="#88afbd" fill-rule="evenodd"></path><path id="path3" d="M278.246 36.482 C 277.329 38.416,277.304 99.438,278.220 101.630 C 278.578 102.486,281.344 105.615,285.224 109.553 C 291.057 115.472,293.523 118.439,298.738 125.813 C 302.847 131.623,299.882 131.166,333.498 131.166 C 363.891 131.166,364.413 131.137,365.079 129.403 C 365.391 128.590,364.327 124.521,363.105 121.849 C 362.598 120.741,361.808 118.830,361.348 117.603 C 360.889 116.376,359.533 113.634,358.334 111.510 C 357.135 109.386,355.246 105.958,354.136 103.893 C 346.172 89.074,329.670 69.320,315.544 57.697 C 306.607 50.343,306.178 50.023,298.662 45.098 C 291.305 40.278,281.679 35.182,279.931 35.182 C 279.093 35.182,278.731 35.461,278.246 36.482 M295.180 196.980 C 293.615 197.561,293.230 198.969,292.889 205.354 C 292.355 215.348,291.781 220.940,291.034 223.431 C 290.641 224.741,290.039 226.966,289.697 228.375 C 289.355 229.784,288.750 231.677,288.352 232.581 C 287.954 233.486,287.268 235.647,286.827 237.383 C 286.017 240.571,284.167 244.675,281.012 250.287 C 280.066 251.969,278.636 254.551,277.833 256.023 C 275.909 259.551,274.516 261.569,271.720 264.879 C 270.448 266.385,267.772 269.555,265.774 271.923 C 263.515 274.600,260.768 277.316,258.509 279.107 C 256.511 280.691,253.757 282.953,252.390 284.135 C 247.970 287.957,245.958 289.188,234.214 295.259 C 231.053 296.893,227.267 298.566,225.801 298.978 C 224.335 299.389,222.261 300.074,221.192 300.501 C 220.122 300.928,217.541 301.722,215.455 302.265 C 213.370 302.809,210.789 303.494,209.719 303.788 C 206.891 304.564,190.220 305.677,185.851 305.380 C 171.297 304.392,163.180 303.023,157.614 300.618 C 156.213 300.012,154.379 299.304,153.537 299.044 C 152.696 298.784,150.848 298.070,149.431 297.457 C 141.882 294.194,142.924 293.578,123.996 312.517 C 105.345 331.181,105.698 330.501,112.743 334.141 C 115.638 335.636,122.846 339.586,123.327 339.940 C 123.537 340.095,125.516 340.923,127.725 341.780 C 129.933 342.638,132.945 343.807,134.417 344.380 C 135.889 344.953,138.475 345.889,140.163 346.461 C 141.851 347.033,143.745 347.767,144.372 348.091 C 145.000 348.416,147.061 348.967,148.952 349.316 C 150.843 349.665,154.455 350.454,156.979 351.068 C 162.094 352.313,165.147 352.776,171.893 353.329 C 174.417 353.536,177.919 353.877,179.675 354.087 C 181.431 354.297,184.289 354.580,186.027 354.717 C 189.344 354.978,200.991 354.341,204.589 353.701 C 205.746 353.496,209.539 352.993,213.019 352.584 C 216.499 352.175,220.457 351.497,221.815 351.078 C 223.172 350.660,226.004 349.974,228.107 349.555 C 231.525 348.874,234.203 347.988,245.371 343.843 C 248.297 342.757,252.241 340.836,257.553 337.911 C 258.815 337.216,261.482 335.779,263.480 334.718 C 273.508 329.394,275.785 327.929,281.453 323.154 C 283.872 321.117,287.141 318.429,288.719 317.181 C 294.825 312.352,297.792 309.678,300.023 306.994 C 301.298 305.461,304.385 301.711,306.884 298.662 C 309.383 295.612,311.526 293.031,311.646 292.925 C 312.182 292.457,315.080 288.752,316.133 287.189 C 317.495 285.167,322.393 276.375,329.447 263.289 C 330.127 262.027,331.073 259.790,331.550 258.317 C 332.026 256.845,332.545 255.468,332.704 255.258 C 333.297 254.471,336.862 243.288,337.450 240.372 C 337.786 238.705,338.401 236.239,338.817 234.892 C 339.233 233.545,339.764 230.865,339.996 228.936 C 340.228 227.008,340.751 223.021,341.158 220.076 C 343.044 206.428,342.987 199.050,340.982 197.553 C 339.782 196.656,297.474 196.127,295.180 196.980 M340.249 198.085 C 341.846 199.143,342.269 204.146,341.296 210.480 C 341.229 210.921,341.054 212.658,340.909 214.340 C 340.764 216.023,340.598 217.658,340.542 217.973 C 340.486 218.289,340.240 220.354,339.997 222.562 C 339.175 230.023,338.775 232.501,338.055 234.593 C 337.660 235.740,337.062 238.106,336.726 239.850 C 336.181 242.673,334.486 247.944,330.846 258.126 C 330.207 259.914,328.964 262.667,328.083 264.245 C 326.316 267.410,319.914 279.069,318.949 280.880 C 317.040 284.462,314.010 288.948,311.458 291.969 C 309.860 293.862,307.498 296.702,306.211 298.279 C 304.923 299.857,303.257 301.846,302.509 302.699 C 301.760 303.553,300.287 305.321,299.235 306.629 C 298.184 307.937,295.000 310.929,292.161 313.279 C 289.321 315.628,285.019 319.196,282.600 321.208 C 276.808 326.025,275.676 326.872,272.275 328.936 C 268.911 330.978,251.620 340.228,248.566 341.620 C 242.680 344.302,231.361 348.173,226.990 349.000 C 225.291 349.321,222.524 349.982,220.841 350.469 C 219.159 350.955,216.577 351.472,215.105 351.617 C 213.633 351.763,209.675 352.199,206.310 352.587 C 193.600 354.054,189.195 354.250,183.556 353.598 C 180.717 353.270,174.958 352.720,170.759 352.377 C 165.044 351.909,162.016 351.463,158.713 350.602 C 156.287 349.970,152.581 349.144,150.478 348.766 C 146.958 348.135,139.560 345.734,136.905 344.361 C 136.292 344.044,134.363 343.336,132.618 342.788 C 130.873 342.240,129.273 341.665,129.063 341.510 C 128.853 341.356,127.484 340.758,126.021 340.183 C 124.558 339.608,122.923 338.835,122.388 338.464 C 121.853 338.094,119.065 336.543,116.193 335.016 C 110.303 331.885,108.816 330.643,109.187 329.162 C 109.543 327.744,139.823 297.693,141.676 296.919 C 143.361 296.215,145.788 296.617,148.757 298.091 C 149.704 298.561,151.503 299.241,152.756 299.602 C 154.009 299.963,155.816 300.654,156.771 301.138 C 159.941 302.741,168.363 304.692,174.187 305.171 C 177.132 305.414,181.778 305.834,184.512 306.105 C 187.616 306.413,190.418 306.483,191.969 306.291 C 193.337 306.123,197.517 305.788,201.260 305.548 C 205.002 305.307,208.874 304.885,209.864 304.609 C 210.854 304.332,213.696 303.559,216.180 302.890 C 218.664 302.221,221.417 301.366,222.299 300.990 C 223.180 300.615,224.847 300.085,226.004 299.814 C 228.358 299.262,230.557 298.219,239.962 293.193 C 246.698 289.594,248.939 288.119,253.155 284.512 C 254.522 283.342,257.306 281.061,259.342 279.443 C 261.700 277.568,264.337 274.954,266.608 272.236 C 268.568 269.890,271.415 266.487,272.933 264.674 C 274.452 262.860,276.259 260.380,276.948 259.161 C 277.638 257.943,278.783 255.964,279.492 254.764 C 282.084 250.377,286.473 241.436,287.039 239.388 C 287.359 238.231,288.201 235.564,288.911 233.461 C 292.347 223.284,292.733 221.139,293.462 208.181 C 294.002 198.588,293.990 198.642,295.744 197.864 C 297.577 197.052,339.000 197.257,340.249 198.085 " stroke="none" fill="#bc6060" fill-rule="evenodd"></path><path id="path4" d="M318.547 60.158 C 318.547 60.224,319.106 60.783,319.790 61.401 L 321.033 62.524 319.909 61.281 C 318.862 60.123,318.547 59.862,318.547 60.158 M294.011 195.995 C 292.356 196.893,291.858 199.029,291.614 206.280 C 291.261 216.742,289.776 225.594,287.376 231.549 C 286.867 232.811,286.109 235.142,285.692 236.729 C 284.765 240.254,283.437 243.258,280.281 248.973 C 278.953 251.378,277.471 254.101,276.989 255.023 C 275.436 257.995,273.696 260.549,271.333 263.323 C 270.064 264.815,267.581 267.781,265.816 269.915 C 259.970 276.986,249.411 285.773,241.874 289.842 C 240.191 290.750,237.868 292.006,236.711 292.632 C 231.287 295.568,227.472 297.299,224.665 298.098 C 222.983 298.577,220.315 299.401,218.738 299.928 C 213.513 301.676,208.500 302.895,205.089 303.248 C 196.640 304.121,188.644 304.410,183.748 304.019 C 167.366 302.711,164.116 301.987,151.434 296.830 C 141.224 292.678,143.493 291.402,120.315 314.323 C 103.175 331.274,103.362 330.538,114.660 336.544 C 117.534 338.071,120.329 339.628,120.871 340.003 C 122.166 340.899,129.356 343.961,131.547 344.551 C 132.492 344.805,133.955 345.366,134.797 345.797 C 135.640 346.228,137.706 347.051,139.388 347.625 C 141.071 348.199,143.433 349.033,144.637 349.478 C 145.841 349.923,148.078 350.462,149.608 350.676 C 151.138 350.889,153.906 351.498,155.760 352.028 C 168.246 355.597,194.795 356.970,207.075 354.681 C 208.757 354.367,212.390 353.857,215.148 353.547 C 217.906 353.238,221.520 352.562,223.179 352.046 C 224.838 351.531,227.616 350.847,229.354 350.527 C 232.301 349.984,235.668 348.903,241.683 346.569 C 243.050 346.038,245.459 345.122,247.036 344.532 C 248.614 343.942,251.539 342.572,253.537 341.488 C 258.739 338.667,261.896 336.977,267.113 334.224 C 274.396 330.379,277.351 328.374,283.174 323.325 C 284.646 322.049,287.055 320.066,288.528 318.919 C 296.587 312.642,298.850 310.454,304.733 303.250 C 306.881 300.621,310.241 296.577,312.200 294.264 C 315.800 290.012,317.942 286.907,320.639 282.027 C 321.452 280.554,323.406 277.027,324.980 274.187 C 331.412 262.586,331.537 262.313,335.636 250.860 C 337.641 245.258,338.432 242.597,338.432 241.455 C 338.432 241.001,338.948 238.954,339.578 236.906 C 340.208 234.859,340.908 231.611,341.133 229.689 C 341.358 227.767,341.877 224.081,342.287 221.497 C 344.732 206.057,344.386 197.475,341.259 195.991 C 339.473 195.143,295.572 195.146,294.011 195.995 M340.982 197.553 C 342.987 199.050,343.044 206.428,341.158 220.076 C 340.751 223.021,340.228 227.008,339.996 228.936 C 339.764 230.865,339.233 233.545,338.817 234.892 C 338.401 236.239,337.786 238.705,337.450 240.372 C 336.862 243.288,333.297 254.471,332.704 255.258 C 332.545 255.468,332.026 256.845,331.550 258.317 C 331.073 259.790,330.127 262.027,329.447 263.289 C 322.393 276.375,317.495 285.167,316.133 287.189 C 315.080 288.752,312.182 292.457,311.646 292.925 C 311.526 293.031,309.383 295.612,306.884 298.662 C 304.385 301.711,301.298 305.461,300.023 306.994 C 297.792 309.678,294.825 312.352,288.719 317.181 C 287.141 318.429,283.872 321.117,281.453 323.154 C 275.785 327.929,273.508 329.394,263.480 334.718 C 261.482 335.779,258.815 337.216,257.553 337.911 C 252.241 340.836,248.297 342.757,245.371 343.843 C 234.203 347.988,231.525 348.874,228.107 349.555 C 226.004 349.974,223.172 350.660,221.815 351.078 C 220.457 351.497,216.499 352.175,213.019 352.584 C 209.539 352.993,205.746 353.496,204.589 353.701 C 200.991 354.341,189.344 354.978,186.027 354.717 C 184.289 354.580,181.431 354.297,179.675 354.087 C 177.919 353.877,174.417 353.536,171.893 353.329 C 165.147 352.776,162.094 352.313,156.979 351.068 C 154.455 350.454,150.843 349.665,148.952 349.316 C 147.061 348.967,145.000 348.416,144.372 348.091 C 143.745 347.767,141.851 347.033,140.163 346.461 C 138.475 345.889,135.889 344.953,134.417 344.380 C 132.945 343.807,129.933 342.638,127.725 341.780 C 125.516 340.923,123.537 340.095,123.327 339.940 C 122.846 339.586,115.638 335.636,112.743 334.141 C 105.698 330.501,105.345 331.181,123.996 312.517 C 142.924 293.578,141.882 294.194,149.431 297.457 C 150.848 298.070,152.696 298.784,153.537 299.044 C 154.379 299.304,156.213 300.012,157.614 300.618 C 163.180 303.023,171.297 304.392,185.851 305.380 C 190.220 305.677,206.891 304.564,209.719 303.788 C 210.789 303.494,213.370 302.809,215.455 302.265 C 217.541 301.722,220.122 300.928,221.192 300.501 C 222.261 300.074,224.335 299.389,225.801 298.978 C 227.267 298.566,231.053 296.893,234.214 295.259 C 245.958 289.188,247.970 287.957,252.390 284.135 C 253.757 282.953,256.511 280.691,258.509 279.107 C 260.768 277.316,263.515 274.600,265.774 271.923 C 267.772 269.555,270.448 266.385,271.720 264.879 C 274.516 261.569,275.909 259.551,277.833 256.023 C 278.636 254.551,280.066 251.969,281.012 250.287 C 284.167 244.675,286.017 240.571,286.827 237.383 C 287.268 235.647,287.954 233.486,288.352 232.581 C 288.750 231.677,289.355 229.784,289.697 228.375 C 290.039 226.966,290.641 224.741,291.034 223.431 C 291.781 220.940,292.355 215.348,292.889 205.354 C 293.230 198.969,293.615 197.561,295.180 196.980 C 297.474 196.127,339.782 196.656,340.982 197.553 " stroke="none" fill="#757270" fill-rule="evenodd"></path><path id="path5" d="M176.966 49.897 C 168.315 50.465,165.174 50.867,160.229 52.042 C 158.442 52.467,155.602 53.074,153.920 53.391 C 152.237 53.708,149.742 54.316,148.375 54.743 C 147.008 55.169,144.552 55.845,142.918 56.245 C 141.284 56.644,139.305 57.297,138.520 57.697 C 137.736 58.096,135.955 58.773,134.564 59.202 C 131.381 60.183,126.967 62.290,118.929 66.664 C 115.459 68.552,111.415 70.727,109.943 71.497 C 104.403 74.393,102.300 75.824,96.035 80.959 C 92.495 83.860,87.926 87.597,85.882 89.264 C 80.630 93.547,78.476 95.757,73.040 102.441 C 70.411 105.673,67.053 109.718,65.578 111.430 C 61.648 115.990,61.832 115.708,56.312 125.621 C 55.375 127.304,53.968 129.885,53.185 131.358 C 52.402 132.830,50.935 135.496,49.924 137.283 C 47.866 140.920,45.320 146.599,44.699 148.937 C 44.474 149.785,43.793 151.617,43.186 153.009 C 42.579 154.401,41.728 157.068,41.295 158.936 C 40.862 160.804,40.189 163.193,39.799 164.245 C 39.410 165.296,38.805 167.878,38.455 169.981 C 38.106 172.084,37.290 176.472,36.642 179.732 L 35.465 185.660 35.433 200.000 C 35.399 215.379,35.818 222.001,37.143 227.047 C 37.572 228.682,38.165 231.511,38.461 233.335 C 38.757 235.159,39.420 237.998,39.934 239.645 C 40.449 241.291,41.065 243.757,41.304 245.124 C 41.544 246.491,42.329 248.922,43.049 250.526 C 43.770 252.130,44.359 253.556,44.359 253.694 C 44.359 254.426,49.144 266.080,51.046 269.981 C 51.675 271.271,56.813 280.163,57.895 281.836 C 62.544 289.017,61.322 289.594,79.545 271.607 C 95.460 255.898,97.514 253.659,97.514 252.025 C 97.514 250.906,95.717 246.237,94.509 244.218 C 88.439 234.071,83.992 208.126,85.980 194.455 C 86.408 191.511,86.871 187.380,87.009 185.277 C 87.189 182.536,87.589 180.478,88.424 178.011 C 89.064 176.119,89.983 173.193,90.467 171.511 C 95.170 155.149,107.786 135.725,120.335 125.527 C 122.341 123.896,125.212 121.555,126.714 120.325 C 130.408 117.300,133.527 115.312,139.406 112.235 C 142.130 110.810,144.704 109.419,145.124 109.144 C 146.632 108.159,153.209 105.637,156.023 104.964 C 157.600 104.587,159.635 103.961,160.544 103.575 C 167.518 100.608,188.468 98.614,198.279 99.984 C 211.733 101.861,210.686 103.949,210.698 75.227 C 210.710 48.492,211.588 50.727,200.826 50.078 C 189.778 49.411,184.941 49.374,176.966 49.897 M199.687 51.005 C 210.798 51.740,209.629 48.687,209.482 76.569 L 209.369 97.880 208.327 98.922 L 207.284 99.964 202.973 99.475 C 193.187 98.365,190.776 98.221,185.858 98.450 C 176.905 98.867,164.461 100.944,159.606 102.832 C 158.527 103.252,156.517 103.856,155.138 104.176 C 152.313 104.831,145.795 107.447,144.238 108.551 C 143.674 108.951,142.180 109.786,140.918 110.405 C 132.067 114.753,130.306 115.944,120.026 124.532 C 113.933 129.622,103.509 141.674,100.683 146.895 C 99.958 148.235,98.542 150.793,97.537 152.581 C 93.670 159.456,92.587 161.644,91.954 163.862 C 91.594 165.124,91.056 166.635,90.758 167.221 C 90.460 167.806,89.866 169.693,89.437 171.416 C 89.008 173.138,88.226 175.573,87.698 176.827 C 87.123 178.194,86.587 180.494,86.360 182.574 C 86.151 184.481,85.563 189.312,85.053 193.308 C 84.046 201.204,83.956 203.737,84.500 208.987 C 85.122 214.991,86.497 223.812,87.212 226.386 C 89.592 234.952,90.883 238.534,94.139 245.597 C 97.582 253.067,98.818 250.969,79.829 269.885 C 60.464 289.176,62.883 288.555,55.633 276.099 C 54.837 274.732,53.728 272.836,53.167 271.885 C 51.487 269.035,46.072 256.220,44.928 252.390 C 44.771 251.864,44.246 250.643,43.760 249.677 C 43.274 248.711,42.596 246.474,42.252 244.706 C 41.908 242.938,41.216 240.201,40.713 238.623 C 40.211 237.046,39.526 234.120,39.190 232.122 C 38.855 230.124,38.340 227.543,38.045 226.386 C 35.904 217.974,35.526 190.057,37.433 181.262 C 37.866 179.264,38.561 175.392,38.978 172.658 C 39.394 169.924,40.098 166.654,40.543 165.392 C 40.987 164.130,41.693 161.557,42.111 159.674 C 42.528 157.791,43.362 155.123,43.963 153.746 C 44.563 152.369,45.243 150.537,45.472 149.674 C 46.082 147.377,48.941 141.021,51.045 137.285 C 52.051 135.497,53.600 132.658,54.487 130.975 C 60.685 119.210,62.332 116.733,70.006 107.648 C 72.315 104.914,74.917 101.730,75.788 100.574 C 78.060 97.556,82.954 92.798,87.380 89.303 C 89.484 87.643,92.323 85.318,93.690 84.138 C 97.989 80.427,103.368 76.286,105.354 75.158 C 128.566 61.980,141.245 56.649,155.449 54.098 C 157.342 53.758,160.182 53.158,161.759 52.765 C 169.735 50.779,185.322 50.056,199.687 51.005 " stroke="none" fill="#6c8494" fill-rule="evenodd"></path><path id="path6" d="M180.306 47.421 C 178.413 47.600,174.369 47.943,171.319 48.183 C 165.365 48.652,160.430 49.411,157.361 50.331 C 156.310 50.646,154.073 51.149,152.390 51.449 C 148.615 52.123,141.415 54.250,136.329 56.193 C 134.226 56.997,131.872 57.856,131.099 58.102 C 129.783 58.521,118.580 64.091,116.767 65.228 C 115.891 65.777,112.949 67.395,109.178 69.401 C 103.046 72.664,101.357 73.703,99.235 75.522 C 97.973 76.604,93.844 79.973,90.060 83.008 C 79.682 91.333,76.360 94.690,66.507 106.813 C 60.187 114.588,59.014 116.159,57.504 118.867 C 52.448 127.937,47.413 137.203,45.939 140.153 C 42.471 147.095,37.758 161.791,35.944 171.319 C 35.484 173.738,34.798 177.352,34.421 179.350 C 34.031 181.412,33.626 185.959,33.483 189.866 C 33.346 193.652,33.134 197.317,33.014 198.010 C 32.329 201.960,34.046 225.154,35.329 229.284 C 35.846 230.950,36.463 233.604,36.699 235.182 C 36.935 236.759,37.621 239.771,38.224 241.874 C 38.826 243.977,39.501 246.584,39.724 247.668 C 39.946 248.751,40.553 250.566,41.072 251.701 C 41.961 253.643,43.023 256.365,45.520 263.098 C 46.613 266.043,49.165 271.182,51.883 275.908 C 62.210 293.868,60.202 294.178,83.249 271.061 C 102.642 251.609,101.504 253.689,97.423 245.150 C 94.153 238.307,92.433 233.416,89.884 223.709 C 88.353 217.882,87.222 202.664,87.956 197.779 C 88.168 196.371,88.590 192.080,88.894 188.242 C 89.324 182.812,89.628 180.860,90.260 179.446 C 90.707 178.447,91.485 176.080,91.988 174.187 C 93.523 168.422,95.458 163.099,97.232 159.766 C 102.213 150.410,104.931 145.789,106.812 143.483 C 113.735 134.994,117.953 130.326,120.701 128.107 C 122.395 126.740,125.227 124.402,126.995 122.912 C 134.363 116.704,148.592 109.189,157.361 106.874 C 159.254 106.375,161.701 105.616,162.798 105.188 C 170.130 102.330,189.808 100.877,199.426 102.484 C 207.226 103.787,210.131 103.406,212.019 100.833 C 212.797 99.772,212.812 99.340,212.911 76.167 C 213.026 49.344,213.195 50.815,209.817 49.321 C 206.644 47.917,187.846 46.707,180.306 47.421 M201.338 49.323 C 207.774 49.771,209.049 50.075,210.364 51.476 L 211.281 52.451 211.397 74.887 C 211.475 90.106,211.380 97.778,211.101 98.737 C 210.170 101.932,208.154 102.297,198.986 100.932 C 192.533 99.971,185.355 99.908,179.541 100.763 C 168.526 102.381,163.649 103.293,161.313 104.172 C 159.914 104.699,157.673 105.384,156.332 105.695 C 152.780 106.519,148.154 108.485,141.966 111.801 C 138.967 113.408,136.439 114.723,136.348 114.723 C 135.453 114.723,127.890 120.229,122.562 124.760 C 121.931 125.296,120.296 126.665,118.929 127.801 C 116.835 129.541,109.133 138.162,106.204 142.044 C 105.736 142.664,104.910 143.696,104.368 144.339 C 103.826 144.981,102.173 147.744,100.694 150.478 C 99.215 153.212,97.195 156.912,96.205 158.700 C 94.560 161.672,90.649 172.312,90.618 173.901 C 90.611 174.269,90.082 175.860,89.444 177.438 C 88.480 179.820,88.192 181.309,87.742 186.232 C 87.444 189.492,86.917 194.224,86.571 196.749 C 85.611 203.747,87.055 220.008,89.253 226.960 C 89.785 228.642,90.640 231.396,91.153 233.078 C 92.547 237.648,93.888 241.062,95.961 245.315 C 98.487 250.498,98.870 252.015,98.060 253.627 C 96.913 255.912,65.488 286.747,63.788 287.257 C 60.720 288.176,60.821 288.295,51.805 273.040 C 50.230 270.377,48.429 266.493,46.839 262.333 C 45.321 258.362,44.248 255.707,42.742 252.199 C 42.110 250.727,41.334 248.403,41.018 247.036 C 40.702 245.669,39.952 242.830,39.351 240.727 C 38.750 238.623,38.073 235.698,37.847 234.226 C 37.620 232.753,37.019 229.914,36.511 227.916 C 34.009 218.080,33.773 188.971,36.107 178.114 C 36.637 175.646,37.334 171.992,37.656 169.993 C 37.977 167.994,38.742 164.764,39.355 162.816 C 39.968 160.867,40.651 158.387,40.872 157.305 C 41.094 156.222,41.724 154.329,42.272 153.098 C 42.820 151.867,43.671 149.656,44.162 148.184 C 45.494 144.188,47.253 140.159,48.727 137.728 C 49.449 136.538,51.661 132.553,53.643 128.872 C 60.515 116.112,60.124 116.713,66.730 108.781 C 68.623 106.509,71.838 102.637,73.873 100.177 C 78.693 94.352,80.716 92.403,88.471 86.109 C 92.015 83.233,96.231 79.795,97.840 78.470 C 102.601 74.547,102.742 74.456,110.707 70.144 C 123.707 63.107,130.468 59.728,133.636 58.684 C 135.310 58.132,137.190 57.417,137.814 57.094 C 140.455 55.729,159.363 51.012,165.966 50.072 C 175.501 48.714,188.620 48.436,201.338 49.323 " stroke="none" fill="#444964" fill-rule="evenodd"></path><path id="path7" d="M176.099 49.140 C 172.103 49.428,167.543 49.847,165.966 50.072 C 159.363 51.012,140.455 55.729,137.814 57.094 C 137.190 57.417,135.310 58.132,133.636 58.684 C 130.468 59.728,123.707 63.107,110.707 70.144 C 102.742 74.456,102.601 74.547,97.840 78.470 C 96.231 79.795,92.015 83.233,88.471 86.109 C 80.716 92.403,78.693 94.352,73.873 100.177 C 71.838 102.637,68.623 106.509,66.730 108.781 C 60.124 116.713,60.515 116.112,53.643 128.872 C 51.661 132.553,49.449 136.538,48.727 137.728 C 47.253 140.159,45.494 144.188,44.162 148.184 C 43.671 149.656,42.820 151.867,42.272 153.098 C 41.724 154.329,41.094 156.222,40.872 157.305 C 40.651 158.387,39.968 160.867,39.355 162.816 C 38.742 164.764,37.977 167.994,37.656 169.993 C 37.334 171.992,36.637 175.646,36.107 178.114 C 33.773 188.971,34.009 218.080,36.511 227.916 C 37.019 229.914,37.620 232.753,37.847 234.226 C 38.073 235.698,38.750 238.623,39.351 240.727 C 39.952 242.830,40.702 245.669,41.018 247.036 C 41.334 248.403,42.110 250.727,42.742 252.199 C 44.248 255.707,45.321 258.362,46.839 262.333 C 48.429 266.493,50.230 270.377,51.805 273.040 C 60.821 288.295,60.720 288.176,63.788 287.257 C 65.488 286.747,96.913 255.912,98.060 253.627 C 98.870 252.015,98.487 250.498,95.961 245.315 C 93.888 241.062,92.547 237.648,91.153 233.078 C 90.640 231.396,89.785 228.642,89.253 226.960 C 87.055 220.008,85.611 203.747,86.571 196.749 C 86.917 194.224,87.444 189.492,87.742 186.232 C 88.192 181.309,88.480 179.820,89.444 177.438 C 90.082 175.860,90.611 174.269,90.618 173.901 C 90.649 172.312,94.560 161.672,96.205 158.700 C 97.195 156.912,99.215 153.212,100.694 150.478 C 102.173 147.744,103.826 144.981,104.368 144.339 C 104.910 143.696,105.736 142.664,106.204 142.044 C 109.133 138.162,116.835 129.541,118.929 127.801 C 120.296 126.665,121.931 125.296,122.562 124.760 C 127.890 120.229,135.453 114.723,136.348 114.723 C 136.439 114.723,138.967 113.408,141.966 111.801 C 148.154 108.485,152.780 106.519,156.332 105.695 C 157.673 105.384,159.914 104.699,161.313 104.172 C 163.649 103.293,168.526 102.381,179.541 100.763 C 185.355 99.908,192.533 99.971,198.986 100.932 C 208.154 102.297,210.170 101.932,211.101 98.737 C 211.380 97.778,211.475 90.106,211.397 74.887 L 211.281 52.451 210.364 51.476 C 208.208 49.180,191.421 48.036,176.099 49.140 M200.826 50.078 C 211.588 50.727,210.710 48.492,210.698 75.227 C 210.686 103.949,211.733 101.861,198.279 99.984 C 188.468 98.614,167.518 100.608,160.544 103.575 C 159.635 103.961,157.600 104.587,156.023 104.964 C 153.209 105.637,146.632 108.159,145.124 109.144 C 144.704 109.419,142.130 110.810,139.406 112.235 C 133.527 115.312,130.408 117.300,126.714 120.325 C 125.212 121.555,122.341 123.896,120.335 125.527 C 107.786 135.725,95.170 155.149,90.467 171.511 C 89.983 173.193,89.064 176.119,88.424 178.011 C 87.589 180.478,87.189 182.536,87.009 185.277 C 86.871 187.380,86.408 191.511,85.980 194.455 C 83.992 208.126,88.439 234.071,94.509 244.218 C 95.717 246.237,97.514 250.906,97.514 252.025 C 97.514 253.659,95.460 255.898,79.545 271.607 C 62.668 288.266,62.241 288.545,59.687 284.602 C 59.178 283.817,58.372 282.572,57.895 281.836 C 56.813 280.163,51.675 271.271,51.046 269.981 C 49.144 266.080,44.359 254.426,44.359 253.694 C 44.359 253.556,43.770 252.130,43.049 250.526 C 42.329 248.922,41.544 246.491,41.304 245.124 C 41.065 243.757,40.449 241.291,39.934 239.645 C 39.420 237.998,38.757 235.159,38.461 233.335 C 38.165 231.511,37.572 228.682,37.143 227.047 C 35.818 222.001,35.399 215.379,35.433 200.000 L 35.465 185.660 36.642 179.732 C 37.290 176.472,38.106 172.084,38.455 169.981 C 38.805 167.878,39.410 165.296,39.799 164.245 C 40.189 163.193,40.862 160.804,41.295 158.936 C 41.728 157.068,42.579 154.401,43.186 153.009 C 43.793 151.617,44.474 149.785,44.699 148.937 C 45.320 146.599,47.866 140.920,49.924 137.283 C 50.935 135.496,52.402 132.830,53.185 131.358 C 53.968 129.885,55.375 127.304,56.312 125.621 C 61.832 115.708,61.648 115.990,65.578 111.430 C 67.053 109.718,70.411 105.673,73.040 102.441 C 78.476 95.757,80.630 93.547,85.882 89.264 C 87.926 87.597,92.495 83.860,96.035 80.959 C 102.300 75.824,104.403 74.393,109.943 71.497 C 111.415 70.727,115.459 68.552,118.929 66.664 C 126.967 62.290,131.381 60.183,134.564 59.202 C 135.955 58.773,137.736 58.096,138.520 57.697 C 139.305 57.297,141.284 56.644,142.918 56.245 C 144.552 55.845,147.008 55.169,148.375 54.743 C 149.742 54.316,152.237 53.708,153.920 53.391 C 155.602 53.074,158.442 52.467,160.229 52.042 C 170.166 49.681,183.540 49.034,200.826 50.078 " stroke="none" fill="#586878" fill-rule="evenodd"></path><path id="path8" d="M277.746 33.078 C 275.663 34.537,275.684 34.132,275.801 69.407 C 275.927 107.701,274.853 102.079,283.763 111.090 C 290.163 117.563,291.130 118.717,296.265 126.019 C 299.206 130.202,301.491 132.511,303.145 132.973 C 305.536 133.641,363.748 133.322,365.267 132.632 C 368.614 131.113,368.347 127.478,364.295 119.390 C 363.799 118.401,363.173 116.902,362.904 116.061 C 362.634 115.220,361.174 112.294,359.657 109.560 C 358.141 106.826,356.096 103.126,355.113 101.338 C 344.077 81.266,321.865 57.888,300.574 43.936 C 293.250 39.138,293.425 39.244,289.166 36.998 C 280.003 32.166,279.362 31.946,277.746 33.078 M287.572 38.423 C 310.783 50.845,332.557 70.915,348.569 94.646 C 351.277 98.660,352.341 100.449,355.620 106.501 C 356.417 107.973,357.799 110.468,358.689 112.046 C 361.455 116.946,365.201 126.400,365.201 128.480 C 365.201 131.113,366.951 130.975,333.516 130.975 C 299.334 130.975,302.746 131.333,299.868 127.448 C 298.968 126.233,297.043 123.647,295.592 121.702 C 294.140 119.757,292.749 117.778,292.501 117.304 C 292.252 116.831,289.071 113.431,285.432 109.749 C 281.379 105.648,278.585 102.504,278.222 101.635 C 277.312 99.458,277.326 38.025,278.236 36.264 C 279.169 34.460,280.923 34.865,287.572 38.423 M188.050 126.465 C 188.523 126.556,189.297 126.556,189.771 126.465 C 190.244 126.374,189.857 126.299,188.910 126.299 C 187.964 126.299,187.576 126.374,188.050 126.465 M8.149 189.866 C 8.151 191.128,8.223 191.598,8.308 190.911 C 8.393 190.224,8.391 189.191,8.304 188.616 C 8.217 188.042,8.147 188.604,8.149 189.866 M294.081 193.926 C 291.092 195.118,290.561 196.608,290.217 204.780 C 289.784 215.076,288.036 225.749,286.011 230.474 C 285.581 231.477,284.820 233.874,284.319 235.800 C 282.915 241.205,275.230 255.979,271.223 260.976 C 266.642 266.689,260.250 273.908,258.409 275.447 C 257.351 276.332,255.262 278.097,253.768 279.370 C 247.442 284.759,245.204 286.274,237.285 290.528 C 229.077 294.937,226.852 295.957,224.048 296.594 C 222.576 296.929,220.371 297.610,219.147 298.107 C 205.142 303.798,171.984 303.897,159.608 298.285 C 158.288 297.687,156.218 296.909,155.007 296.557 C 153.796 296.205,152.023 295.525,151.068 295.044 C 146.310 292.654,141.664 292.346,138.857 294.235 C 135.377 296.577,106.579 325.529,105.388 327.883 C 103.767 331.086,105.502 333.633,111.281 336.533 C 112.228 337.008,114.778 338.419,116.950 339.669 C 121.411 342.238,127.023 344.797,130.948 346.052 C 132.405 346.518,134.212 347.212,134.963 347.595 C 135.714 347.977,137.189 348.550,138.241 348.868 C 139.293 349.186,141.444 349.962,143.021 350.593 C 144.598 351.224,147.007 351.866,148.374 352.018 C 149.741 352.171,152.236 352.711,153.919 353.219 C 159.422 354.879,171.938 356.673,184.089 357.542 C 191.023 358.039,201.539 357.453,208.222 356.198 C 210.956 355.685,214.898 355.090,216.981 354.876 C 219.064 354.662,222.506 353.979,224.629 353.359 C 226.752 352.738,229.589 352.039,230.932 351.806 C 232.276 351.572,234.255 351.029,235.330 350.598 C 236.405 350.167,238.662 349.337,240.344 348.754 C 253.444 344.215,273.721 333.247,282.409 326.001 C 284.933 323.896,288.117 321.324,289.484 320.286 C 296.801 314.727,301.863 309.574,309.810 299.596 C 310.992 298.113,312.936 295.789,314.131 294.434 C 316.396 291.865,320.567 285.813,321.890 283.174 C 322.312 282.333,324.079 279.063,325.818 275.908 C 327.556 272.753,329.827 268.623,330.865 266.730 C 332.681 263.418,333.722 260.917,336.199 253.920 C 336.832 252.132,337.777 249.577,338.300 248.241 C 338.824 246.906,339.421 244.755,339.628 243.461 C 339.835 242.167,340.507 239.474,341.123 237.476 C 341.760 235.406,342.492 231.704,342.824 228.872 C 343.145 226.138,343.657 222.850,343.962 221.566 C 345.359 215.680,345.972 199.153,344.868 197.132 C 343.878 195.320,342.432 194.195,340.651 193.850 C 338.270 193.390,295.248 193.460,294.081 193.926 M341.259 195.991 C 344.386 197.475,344.732 206.057,342.287 221.497 C 341.877 224.081,341.358 227.767,341.133 229.689 C 340.908 231.611,340.208 234.859,339.578 236.906 C 338.948 238.954,338.432 241.001,338.432 241.455 C 338.432 242.597,337.641 245.258,335.636 250.860 C 331.537 262.313,331.412 262.586,324.980 274.187 C 323.406 277.027,321.452 280.554,320.639 282.027 C 317.942 286.907,315.800 290.012,312.200 294.264 C 310.241 296.577,306.881 300.621,304.733 303.250 C 298.850 310.454,296.587 312.642,288.528 318.919 C 287.055 320.066,284.646 322.049,283.174 323.325 C 277.351 328.374,274.396 330.379,267.113 334.224 C 261.896 336.977,258.739 338.667,253.537 341.488 C 251.539 342.572,248.614 343.942,247.036 344.532 C 245.459 345.122,243.050 346.038,241.683 346.569 C 235.668 348.903,232.301 349.984,229.354 350.527 C 227.616 350.847,224.838 351.531,223.179 352.046 C 221.520 352.562,217.906 353.238,215.148 353.547 C 212.390 353.857,208.757 354.367,207.075 354.681 C 194.795 356.970,168.246 355.597,155.760 352.028 C 153.906 351.498,151.138 350.889,149.608 350.676 C 148.078 350.462,145.841 349.923,144.637 349.478 C 143.433 349.033,141.071 348.199,139.388 347.625 C 137.706 347.051,135.640 346.228,134.797 345.797 C 133.955 345.366,132.492 344.805,131.547 344.551 C 129.356 343.961,122.166 340.899,120.871 340.003 C 120.329 339.628,117.534 338.071,114.660 336.544 C 103.362 330.538,103.175 331.274,120.315 314.323 C 143.493 291.402,141.224 292.678,151.434 296.830 C 164.116 301.987,167.366 302.711,183.748 304.019 C 188.644 304.410,196.640 304.121,205.089 303.248 C 208.500 302.895,213.513 301.676,218.738 299.928 C 220.315 299.401,222.983 298.577,224.665 298.098 C 227.472 297.299,231.287 295.568,236.711 292.632 C 237.868 292.006,240.191 290.750,241.874 289.842 C 246.049 287.588,247.868 286.308,253.669 281.539 C 260.568 275.867,262.135 274.368,265.816 269.915 C 267.581 267.781,270.064 264.815,271.333 263.323 C 273.696 260.549,275.436 257.995,276.989 255.023 C 277.471 254.101,278.953 251.378,280.281 248.973 C 283.437 243.258,284.765 240.254,285.692 236.729 C 286.109 235.142,286.867 232.811,287.376 231.549 C 289.776 225.594,291.261 216.742,291.614 206.280 C 291.858 199.029,292.356 196.893,294.011 195.995 C 295.572 195.146,339.473 195.143,341.259 195.991 M8.140 210.134 C 8.143 211.185,8.217 211.570,8.305 210.989 C 8.393 210.408,8.391 209.547,8.300 209.077 C 8.209 208.607,8.137 209.082,8.140 210.134 M199.144 277.135 C 199.620 277.226,200.308 277.223,200.674 277.127 C 201.039 277.031,200.650 276.956,199.809 276.961 C 198.967 276.965,198.668 277.043,199.144 277.135 M161.855 380.378 C 162.223 380.475,162.825 380.475,163.193 380.378 C 163.561 380.282,163.260 380.203,162.524 380.203 C 161.788 380.203,161.487 380.282,161.855 380.378 " stroke="none" fill="#584850" fill-rule="evenodd"></path></g></svg>